<svg xmlns="http://www.w3.org/2000/svg" width="97.234" height="100" viewBox="1427.766 6358 97.234 100"><g data-name="Group 104"><path d="M1460.025 6440.204h16.228v-64.575c0-1.86.195-2.137 1.98-2.709 11.244-3.6 22.49-7.199 33.734-10.797.258-.084.503-.196.89-.347h-52.826v20.78h-3.228v-.11c0-5.946 0-15.715.002-21.612 0-1.837.413-2.25 2.226-2.25h62.789c3.141 0 3.18.04 3.18 3.218v79.391c0 1.49-.276 1.908-1.563 2.317-12.673 4.055-25.35 8.1-38.02 12.162-2.307.739-4.587 1.55-6.881 2.328h-1.172c-.871-.483-1.127-1.245-1.122-2.202.024-3.745.01-7.486.008-11.23 0-.345-.029-.69-.047-1.107h-1.26c-5.242 0-10.482 0-15.724-.003-2.007 0-2.414-.404-2.414-2.387-.002-6.607-.002-15.823-.002-22.43h3.222v21.563Zm19.442 13.057c0 .287.03.572.047.976 2.145-.68 4.21-1.333 6.273-1.993 11.708-3.745 23.414-7.5 35.13-11.226.699-.221.931-.537.931-1.286-.02-25.451-.018-50.903-.018-76.352v-1.067l-6.372 2.038c-11.682 3.737-23.364 7.481-35.054 11.197-.7.222-.955.506-.955 1.265.021 25.483.018 50.966.018 76.448Z" fill-rule="evenodd" data-name="Path 78"/><path d="M1433.186 6416.467c1.957-.05 3.559-.975 4.522-2.83.337-.65.69-.859 1.404-.858 9.692.006 19.384-.02 29.075-.037.293 0 .586.007.879-.003 1.135-.04 1.842-.66 1.822-1.593-.02-.913-.767-1.56-1.876-1.561-6.146-.005-12.293.003-18.44.006-3.838.002-7.676-.011-11.514.02-.665.005-1.013-.175-1.328-.805-1.189-2.38-3.873-3.433-6.354-2.583-2.37.812-3.93 3.283-3.555 5.635.433 2.707 2.573 4.595 5.365 4.61Zm-.111-7.351c1.183.002 2.106.917 2.103 2.084a2.103 2.103 0 0 1-2.112 2.088 2.076 2.076 0 0 1-2.1-2.095c.002-1.175.92-2.08 2.109-2.077Z" fill="#f46c10" fill-rule="evenodd" data-name="Path 79"/><path d="M1453.962 6389.275c-4.977 0-9.954-.01-14.93.012-.617.003-.965-.125-1.264-.74-1.117-2.298-3.591-3.398-6.04-2.78-2.25.566-3.946 2.756-3.95 5.098-.003 2.39 1.68 4.536 4.027 5.132 2.367.6 4.848-.518 5.954-2.79.324-.667.74-.762 1.372-.762 9.79-.002 19.58-.02 29.371-.036 1.611-.002 2.35-.47 2.387-1.513.038-1.066-.792-1.634-2.388-1.634h-14.54v.013Zm-20.887 3.695a2.092 2.092 0 0 1-2.11-2.093c-.004-1.176.912-2.088 2.1-2.09 1.185-.003 2.112.91 2.113 2.079a2.114 2.114 0 0 1-2.103 2.104Z" fill="#f46c10" fill-rule="evenodd" data-name="Path 80"/><path d="M1455.634 6406.008h12.877c.195 0 .39.007.585-.004 1.047-.06 1.762-.686 1.79-1.564.03-.914-.7-1.612-1.809-1.62-2.926-.025-5.853-.016-8.78-.01-5.82.014-11.64.035-17.46.052-1.595.005-2.342.486-2.37 1.531-.029 1.075.785 1.63 2.389 1.631h12.778v-.016Z" fill="#f46c10" fill-rule="evenodd" data-name="Path 81"/><path d="M1455.676 6399.198c4.455 0 8.91-.006 13.364.005.752.002 1.44-.21 1.641-.94.136-.49.082-1.23-.213-1.59-.305-.372-1.003-.581-1.532-.585-4.812-.037-9.624-.014-14.437-.009-4.097.004-8.194.012-12.291.006-.766-.001-1.425.27-1.58 1.013-.104.5.003 1.21.311 1.58.288.347.964.511 1.47.516 4.423.037 8.845.021 13.267.021v-.017Z" fill="#f46c10" fill-rule="evenodd" data-name="Path 82"/><path d="M1487.209 6412.22c-.036 1.384.978 2.226 1.982 1.922a223.697 223.697 0 0 0 6.843-2.2c.93-.315 1.304-1.16 1.014-2.023-.26-.77-1.078-1.207-1.983-.933-2.261.684-4.523 1.376-6.744 2.177-.517.186-.872.819-1.112 1.057Z" fill-rule="evenodd" data-name="Path 83"/><path d="M1440.575 6362.125c.6-2.484 2.633-4.12 5.123-4.125 2.53-.005 4.592 1.657 5.182 4.178.537 2.3-.645 4.74-2.907 5.805-.587.28-.707.608-.702 1.19.02 4.133.008 8.267.013 12.402 0 .282.031.564.047.812l9.472.06 3.228.02 1.127.009c2.539 0 5.077-.024 7.616.018.522.01 1.214.112 1.516.451.347.384.55 1.122.447 1.631-.19.947-1.044 1.112-1.92 1.109-7.521-.005-15.038 0-22.559-.005-1.578 0-2.097-.53-2.097-2.109-.003-4.785-.014-9.57.013-14.353.002-.632-.154-.966-.757-1.253-2.244-1.075-3.403-3.53-2.842-5.84Zm5.146 3.22c1.15-.002 2.13-.973 2.124-2.105-.005-1.125-1.007-2.12-2.13-2.117-1.126.003-2.123 1-2.123 2.124.002 1.146.97 2.098 2.129 2.098Z" fill="#f46c10" fill-rule="evenodd" data-name="Path 84"/><path d="M1443.32 6434.07c.277-.144.564-.272.84-.402 0-5.185-.002-10.294.003-15.405 0-1.365.511-1.884 1.887-1.884 7.65-.006 15.298-.006 22.949 0 1.169 0 1.863.574 1.889 1.513.029.955-.73 1.613-1.908 1.618-2.635.008-5.273.002-7.908.002l-13.79.05v1.096c0 4.003.017 8.008-.019 12.01-.005.736.18 1.11.885 1.454 2.184 1.072 3.264 3.525 2.7 5.814-.605 2.447-2.719 4.133-5.153 4.115-2.453-.021-4.527-1.71-5.122-4.162-.548-2.27.597-4.7 2.747-5.82Zm2.45 6.771c1.156-.02 2.109-1 2.075-2.134-.037-1.151-.984-2.028-2.179-2.01-1.169.016-2.11.974-2.074 2.114.036 1.143 1.01 2.05 2.179 2.03Z" fill="#f46c10" fill-rule="evenodd" data-name="Path 85"/></g></svg>