<svg xmlns="http://www.w3.org/2000/svg" width="123.594" height="100" viewBox="1001.406 6358 123.594 100"><g data-name="Group 105"><path d="M1001.406 6358c23.71.004 47.422.009 71.133.011 16.988.002 33.976 0 50.964 0H1125v99.978h-122.025c-.523 0-1.046.007-1.57.011v-100Zm83.727 3.886v50.45h-3.805v-50.387h-36.099v74.701h36.103v-7.663h3.892v7.661h35.926v-74.762h-36.017Zm-43.91 74.813v-74.775h-35.899v92.155h35.91v-13.528h-32.343v-3.852h32.332Zm3.988 17.385h36.049v-13.446h-36.049v13.446Zm40.015-.009h35.941v-13.408h-35.941v13.408Z" fill-rule="evenodd" data-name="Path 86"/><path d="m1099.712 6366.16-9.415 13.453-3.147-2.175 9.427-13.46 3.135 2.182Z" fill="#f46c10" fill-rule="evenodd" data-name="Path 87"/><path d="m1100.231 6370.679 3.121 2.195c-3.126 4.468-6.226 8.902-9.416 13.46-1.04-.721-2.041-1.418-3.139-2.18l9.434-13.475Z" fill="#f46c10" fill-rule="evenodd" data-name="Path 88"/><path d="m1053.97 6386.341-3.132-2.2 9.43-13.458 3.133 2.188-9.43 13.47Z" fill="#f46c10" fill-rule="evenodd" data-name="Path 89"/><path d="m1056.623 6363.962 3.129 2.198-9.423 13.456-3.13-2.18 9.424-13.474Z" fill="#f46c10" fill-rule="evenodd" data-name="Path 90"/><path d="M1081.403 6416.767c1.074 0 2.033-.057 2.977.034.283.028.724.45.751.726.094.945.036 1.906.036 2.962h-3.764v-3.722Z" fill-rule="evenodd" data-name="Path 91"/><path d="M1085.185 6420.472c-1.074 0-2.033.057-2.977-.035-.283-.027-.724-.45-.752-.726-.093-.945-.036-1.905-.036-2.962h3.765v3.723Z" fill-rule="evenodd" data-name="Path 92"/><path d="m1010.367 6379.627-3.135-2.194 9.43-13.46 3.131 2.182-9.426 13.472Z" fill="#f46c10" fill-rule="evenodd" data-name="Path 93"/><path d="m1014.009 6386.34-3.129-2.197 9.428-13.461 3.126 2.185-9.425 13.473Z" fill="#f46c10" fill-rule="evenodd" data-name="Path 94"/></g></svg>