<svg xmlns="http://www.w3.org/2000/svg" width="100" height="100" viewBox="625 6358 100 100"><g data-name="Group 106"><path d="M721.779 6358v16.064h-22.555v-6.317h-3.244v6.33h-22.59V6358h22.581v6.385h3.226V6358h22.582Zm-29.097 12.858v-9.56h-16.02v9.56h16.02Zm25.83-9.564H702.5v9.56h16.01v-9.56Z" fill-rule="evenodd" data-name="Path 95"/><path d="M627.316 6360.155h4.864v4.864h-4.864v-4.864z" fill="#f46c10" fill-rule="evenodd" data-name="Rectangle 188"/><path d="M662.801 6363.381h4.864v4.864h-4.864v-4.864z" fill="#f46c10" fill-rule="evenodd" data-name="Rectangle 189"/><path d="M682.248 6396.72h4.864v4.863h-4.864v-4.864z" fill="#f46c10" fill-rule="evenodd" data-name="Rectangle 190"/><path d="M662.892 6415.248h4.864v4.864h-4.864v-4.864z" fill="#f46c10" fill-rule="evenodd" data-name="Rectangle 191"/><path d="M637.094 6403.957h4.864v4.864h-4.864v-4.864z" fill="#f46c10" fill-rule="evenodd" data-name="Rectangle 192"/><path d="M627.414 6424.926h4.864v4.863h-4.864v-4.863z" fill="#f46c10" fill-rule="evenodd" data-name="Rectangle 193"/><path d="M653.214 6445.035h4.864v4.864h-4.864v-4.864z" fill="#f46c10" fill-rule="evenodd" data-name="Rectangle 194"/><path d="M666.237 6444.045h4.864v4.864h-4.864v-4.864z" fill="#f46c10" fill-rule="evenodd" data-name="Rectangle 195"/><path d="M717.83 6450.497h4.863v4.864h-4.864v-4.864z" fill="#f46c10" fill-rule="evenodd" data-name="Rectangle 196"/><path d="M708.206 6405.334h4.864v4.864h-4.864v-4.864z" fill="#f46c10" fill-rule="evenodd" data-name="Rectangle 197"/><path d="M717.872 6395.656h4.864v4.864h-4.864v-4.864z" fill="#f46c10" fill-rule="evenodd" data-name="Rectangle 198"/><path d="M625 6438.649h3.215v-3.172h3.202v3.117h3.242v-3.095h3.202v3.073h3.242v-3.087h3.202v3.144h3.219v16.098h-3.148v3.219h-3.202v-3.108h-3.242v3.086h-3.237v-3.1h-3.206v3.114h-3.238v-3.16H625v-16.13Zm3.295 3.267v9.56h16.01v-9.56h-16.01Z" fill-rule="evenodd" data-name="Path 96"/><path d="M625 6426.35c.567-1.66 1.53-2.975 3.247-3.58 2.477-.873 5.242.449 6.148 2.914a4.85 4.85 0 0 1-2.714 6.152 4.832 4.832 0 0 1-6.288-2.557c-.133-.303-.262-.608-.393-.913v-2.016Zm6.442 1.03c.014-.827-.748-1.612-1.58-1.626-.828-.015-1.612.747-1.626 1.58-.015.829.746 1.612 1.58 1.628.826.015 1.61-.749 1.626-1.582Z" fill-rule="evenodd" data-name="Path 97"/><path d="M653.993 6403.212v-3.245h-6.33v-3.24h6.326v-3.21h-6.343v-3.201h6.304c.269-1.979 1.323-3.097 3.297-3.344v-6.31h3.192v6.293h3.245v-6.311h3.206v6.328h3.245v-6.31h3.206v6.291h3.245v-6.308h3.206v6.326h3.245v-6.308h3.241v6.325h3.21v-6.342h3.2v6.3c1.977.274 3.093 1.332 3.35 3.3h6.306v3.192h-6.293v3.245h6.31v3.206h-6.328v3.245h6.31v3.242h-6.327v3.21h6.344v3.205h-6.326v3.245h6.308v3.241h-6.325v3.21h6.342v3.2h-6.3c-.276 1.977-1.331 3.095-3.301 3.35v6.307h-3.192v-6.294h-3.245v6.311h-3.206v-6.329h-3.245v6.31h-3.206v-6.291h-3.245v6.309h-3.206v-6.327h-3.245v6.309h-3.241v-6.326h-3.21v6.343h-3.2v-6.236c-2.27-.606-2.964-1.308-3.365-3.366h-6.29v-3.192h6.293v-3.245h-6.311v-3.206h6.329v-3.245h-6.31v-3.206h6.291v-3.245h-6.31v-3.206h6.35Zm3.334-12.91v35.367h35.369v-35.367h-35.369Z" fill-rule="evenodd" data-name="Path 98"/><path d="M708.844 6416.115h3.19v32.155h-35.337v-3.15h32.147v-29.005Z" fill-rule="evenodd" data-name="Path 99"/><path d="M721.738 6406.393v38.642h-3.121v-35.417c-1.157 0-2.22-.047-3.272.036-.242.02-.49.464-.664.756-1.05 1.771-3.086 2.741-5.052 2.381-2.009-.367-3.679-2.087-3.95-4.067a4.886 4.886 0 0 1 2.592-5.036c2.269-1.178 5.112-.38 6.359 1.893.374.683.776.844 1.482.827 1.842-.045 3.685-.015 5.626-.015Zm-11.228.005c-.828-.014-1.611.748-1.625 1.582-.014.828.747 1.611 1.58 1.626.827.014 1.611-.75 1.625-1.582.015-.828-.748-1.612-1.58-1.626Z" fill-rule="evenodd" data-name="Path 100"/><path d="M628.303 6395.077h9.584v-4.743h3.184v7.945h-9.603v20.957h-3.165v-24.16Z" fill-rule="evenodd" data-name="Path 101"/><path d="M654.063 6378.959h-6.433v8.003h-3.218v-11.183h6.357v-11.241h6.421v3.112h-3.127v11.309Z" fill-rule="evenodd" data-name="Path 102"/><path d="M641.059 6387.004h-3.117v-4.802h-9.663v-12.837h3.134v9.56h9.646v8.08Z" fill-rule="evenodd" data-name="Path 103"/><path d="M712.031 6399.883h-3.104v-22.443h3.104v22.443Z" fill-rule="evenodd" data-name="Path 104"/><path d="M689.568 6454.703v-3.093h22.48v3.093h-22.48Z" fill-rule="evenodd" data-name="Path 105"/><path d="M725 6398.37c-.012 2.692-2.181 4.81-4.907 4.789-2.682-.02-4.788-2.201-4.761-4.933.025-2.637 2.184-4.742 4.856-4.736 2.703.006 4.825 2.157 4.812 4.88Zm-3.232-.036c.007-.828-.762-1.607-1.593-1.614-.829-.007-1.606.762-1.612 1.594-.007.829.76 1.607 1.592 1.614.828.007 1.607-.762 1.613-1.594Z" fill-rule="evenodd" data-name="Path 106"/><path d="M673.385 6446.676c.01 2.717-2.12 4.87-4.824 4.872-2.711.003-4.849-2.136-4.845-4.85a4.801 4.801 0 0 1 4.773-4.819c2.724-.016 4.886 2.101 4.896 4.797Zm-3.232.027c-.007-.831-.785-1.6-1.613-1.594-.831.007-1.6.785-1.593 1.614.007.832.784 1.6 1.613 1.594.83-.006 1.6-.785 1.593-1.614Z" fill-rule="evenodd" data-name="Path 107"/><path d="M644.352 6406.342c.013 2.72-2.113 4.876-4.814 4.882-2.714.005-4.857-2.13-4.855-4.84 0-2.665 2.117-4.81 4.762-4.83 2.73-.018 4.894 2.093 4.907 4.788Zm-6.438-.03c-.048.819.69 1.631 1.525 1.68.814.049 1.632-.694 1.68-1.526.048-.816-.693-1.632-1.526-1.681-.815-.048-1.63.694-1.68 1.527Z" fill-rule="evenodd" data-name="Path 108"/><path d="M660.481 6446.694c.006 2.711-2.133 4.856-4.841 4.854-2.707-.002-4.836-2.149-4.828-4.867a4.801 4.801 0 0 1 4.79-4.802c2.723-.011 4.874 2.111 4.88 4.815Zm-4.757-1.585c-.815-.048-1.631.693-1.68 1.526-.048.82.688 1.632 1.524 1.682.814.049 1.632-.693 1.681-1.526.049-.815-.692-1.632-1.525-1.682Z" fill-rule="evenodd" data-name="Path 109"/><path d="M665.366 6361.23c2.699.011 4.811 2.17 4.793 4.9-.018 2.686-2.196 4.795-4.926 4.77-2.638-.026-4.747-2.183-4.743-4.852.005-2.705 2.154-4.829 4.876-4.818Zm-.014 6.438c.833-.017 1.593-.805 1.575-1.632-.018-.833-.804-1.593-1.631-1.576-.833.018-1.592.805-1.575 1.633.018.834.804 1.593 1.631 1.575Z" fill-rule="evenodd" data-name="Path 110"/><path d="M725 6453.152a4.803 4.803 0 0 1-4.847 4.848c-2.704-.003-4.832-2.154-4.822-4.873a4.801 4.801 0 0 1 4.797-4.796c2.72-.01 4.869 2.116 4.872 4.82Zm-3.232-.02c-.02-.834-.809-1.591-1.635-1.57-.834.02-1.591.809-1.57 1.636.02.835.808 1.592 1.635 1.571.833-.02 1.59-.81 1.57-1.636Z" fill-rule="evenodd" data-name="Path 111"/><path d="M637.952 6430.508v-15.995h3.098v15.995h-3.098Z" fill-rule="evenodd" data-name="Path 112"/><path d="M721.725 6377.426v12.781h-3.097v-12.78h3.097Z" fill-rule="evenodd" data-name="Path 113"/><path d="M689.471 6364.51v3.093h-3.112v-3.094h3.112Z" fill-rule="evenodd" data-name="Path 114"/><path d="M679.918 6364.5h3.09v3.093h-3.09v-3.094Z" fill-rule="evenodd" data-name="Path 115"/><path d="M705.707 6364.501h3.093v3.11h-3.093v-3.11Z" fill-rule="evenodd" data-name="Path 116"/><path d="M715.243 6367.638h-3.076v-3.129h3.076v3.13Z" fill-rule="evenodd" data-name="Path 117"/><path d="M637.983 6445.146h3.086v3.128h-3.086v-3.128Z" fill-rule="evenodd" data-name="Path 118"/><path d="M631.478 6448.239v-3.058h3.129v3.058h-3.13Z" fill-rule="evenodd" data-name="Path 119"/><path d="M663.765 6409.547v-12.758h12.784v3.122h-9.575v9.636h-3.209Z" fill-rule="evenodd" data-name="Path 120"/><path d="M673.419 6419.217v-3.091h9.616v-9.67h3.171v12.761H673.42Z" fill-rule="evenodd" data-name="Path 121"/><path d="M689.515 6398.327c0 2.706-2.15 4.84-4.864 4.832-2.698-.008-4.82-2.168-4.805-4.89a4.8 4.8 0 0 1 4.813-4.78c2.716-.005 4.857 2.128 4.856 4.838Zm-3.232.038c.025-.825-.728-1.62-1.563-1.645-.825-.026-1.617.728-1.643 1.563-.025.826.727 1.619 1.562 1.645.824.026 1.618-.729 1.644-1.563Z" fill-rule="evenodd" data-name="Path 122"/><path d="M665.351 6412.846c2.703.007 4.822 2.16 4.808 4.885-.014 2.69-2.185 4.805-4.912 4.784-2.642-.021-4.757-2.173-4.757-4.837 0-2.708 2.145-4.84 4.861-4.832Zm1.576 4.875c.026-.826-.728-1.62-1.562-1.645-.826-.026-1.618.728-1.644 1.563-.025.826.728 1.618 1.562 1.645.825.025 1.618-.73 1.644-1.563Z" fill-rule="evenodd" data-name="Path 123"/><path d="M629.88 6358.004c2.699.01 4.812 2.17 4.793 4.9-.018 2.686-2.196 4.795-4.926 4.769-2.638-.025-4.747-2.182-4.743-4.851.005-2.705 2.154-4.83 4.876-4.818Zm-.014 6.438c.833-.018 1.593-.805 1.575-1.632-.018-.834-.804-1.594-1.631-1.576-.833.018-1.592.805-1.574 1.632.017.835.803 1.594 1.63 1.576Z" fill-rule="evenodd" data-name="Path 124"/></g></svg>