<svg xmlns="http://www.w3.org/2000/svg" width="1057.167" height="1304.24" viewBox="480.833 125 1057.167 1304.24"><g data-name="Mask Group 17" clip-path="url(&quot;#a&quot;)"><g data-name="Group 52"><g data-name="Group 51"><path d="M217.837 947.124V30.406H377.99v916.718H217.837Zm755.322 0L459.93 543.618c-14.314-11.762-23.542-22.49-27.732-32.165-4.243-9.64-5.881-21.214-5.036-34.666 0-14.28 2.484-26.68 7.571-37.201 5.037-10.486 15.972-22.49 32.77-35.925L952.963 30.406h245.871L598.61 478.046l619.178 469.078H973.16Z" fill-rule="evenodd" fill="url(&quot;#b&quot;)" transform="translate(296.205 94.594)" data-name="Path 22"/></g><path d="M0 0h1057.167v173.488H0V0z" fill-rule="evenodd" fill="url(&quot;#c&quot;)" transform="translate(480.833 1255.753)" data-name="Rectangle 122"/></g></g><defs><linearGradient x1="0" y1=".5" x2="1" y2=".5" id="b"><stop stop-color="#f9840e" offset="0"/><stop stop-color="#ec4217" offset="1"/></linearGradient><linearGradient x1="0" y1=".5" x2="1" y2=".5" id="c"><stop stop-color="#f9840e" offset="0"/><stop stop-color="#ec4217" offset="1"/></linearGradient><clipPath id="a"><path d="M0 0h1920v915H0V0z" data-name="Rectangle 123" transform="translate(0 126)"/></clipPath></defs></svg>