<svg xmlns="http://www.w3.org/2000/svg" width="163.955" height="50" viewBox="1655.836 37.5 163.955 50"><g data-name="Group 37"><path d="M1665.218 76.445v1.243h-3.532v9.69h-1.48v-9.69h-3.548v-1.243h8.56Z" fill="#ef5214" fill-rule="evenodd" data-name="Path 5"/><path d="M1668.018 79.527c.463 0 .89.078 1.282.232.392.156.73.38 1.014.672.285.292.508.654.668 1.084.16.43.24.92.24 1.468 0 .214-.022.356-.068.428-.046.07-.133.107-.26.107h-5.142c.01.488.076.912.198 1.273.122.362.29.663.504.905.214.241.468.422.763.541.295.12.626.18.991.18.342 0 .636-.04.882-.12a4.183 4.183 0 0 0 1.084-.51.593.593 0 0 1 .309-.118.3.3 0 0 1 .259.13l.381.496a2.57 2.57 0 0 1-.602.53c-.235.15-.485.273-.752.37a4.986 4.986 0 0 1-1.675.29c-.534 0-1.026-.09-1.476-.271a3.241 3.241 0 0 1-1.167-.793 3.638 3.638 0 0 1-.767-1.294c-.183-.514-.275-1.103-.275-1.77 0-.54.083-1.043.248-1.51.165-.469.403-.874.714-1.218.31-.343.688-.612 1.136-.808.448-.196.951-.294 1.511-.294Zm.03 1c-.656 0-1.172.19-1.548.568-.377.38-.61.904-.702 1.575H1670c0-.315-.043-.604-.129-.865a1.932 1.932 0 0 0-.381-.68 1.712 1.712 0 0 0-.615-.442 2.07 2.07 0 0 0-.827-.157Z" fill="#ef5214" fill-rule="evenodd" data-name="Path 6"/><path d="M1678.226 81.022a.612.612 0 0 1-.122.13c-.04.03-.1.046-.175.046a.435.435 0 0 1-.248-.095 2.91 2.91 0 0 0-.84-.42 2.348 2.348 0 0 0-.72-.095c-.377 0-.71.067-1 .202-.29.134-.533.33-.729.584a2.635 2.635 0 0 0-.442.923c-.1.36-.149.765-.149 1.213 0 .468.054.883.16 1.247.107.364.257.669.45.915.194.247.429.435.706.565.277.13.589.195.934.195.331 0 .604-.04.817-.118.213-.08.391-.167.534-.264.142-.096.26-.184.351-.263a.424.424 0 0 1 .275-.118c.116 0 .203.043.26.13l.38.496a2.938 2.938 0 0 1-1.258.904 4.475 4.475 0 0 1-1.595.286c-.483 0-.932-.09-1.347-.267a3.064 3.064 0 0 1-1.079-.775 3.673 3.673 0 0 1-.721-1.247c-.176-.493-.263-1.056-.263-1.686 0-.575.08-1.106.24-1.595.16-.488.394-.91.702-1.263.308-.353.688-.63 1.14-.827.453-.199.972-.298 1.557-.298.539 0 1.017.088 1.434.263.417.176.786.423 1.107.744l-.36.488Z" fill="#ef5214" fill-rule="evenodd" data-name="Path 7"/><path d="M1680.08 87.378V76.14h1.358v4.547a4.17 4.17 0 0 1 1.1-.843c.4-.211.863-.317 1.388-.317.422 0 .794.07 1.117.21.323.14.593.338.809.595.216.256.38.566.492.927.112.361.168.76.168 1.198v4.921h-1.358v-4.921c0-.585-.134-1.039-.4-1.362-.268-.323-.676-.484-1.226-.484-.401 0-.776.096-1.125.29-.349.193-.67.454-.965.785v5.692h-1.358Z" fill="#ef5214" fill-rule="evenodd" data-name="Path 8"/><path d="M1688.564 87.378v-7.729h.809c.193 0 .315.095.366.283l.107.839c.336-.372.71-.672 1.125-.9.415-.23.894-.344 1.438-.344.423 0 .795.07 1.118.21.323.14.592.338.809.595.216.256.38.566.492.927.112.361.168.76.168 1.198v4.921h-1.358v-4.921c0-.585-.134-1.039-.401-1.362-.267-.323-.675-.484-1.224-.484-.402 0-.777.096-1.125.29-.35.193-.671.454-.966.785v5.692h-1.358Z" fill="#ef5214" fill-rule="evenodd" data-name="Path 9"/><path d="M1698.864 77.223a.867.867 0 0 1-.08.37 1.081 1.081 0 0 1-.214.305.985.985 0 0 1-.308.21.93.93 0 0 1-.375.076.898.898 0 0 1-.37-.076 1.006 1.006 0 0 1-.515-.515.953.953 0 0 1 0-.748 1.014 1.014 0 0 1 .515-.523.898.898 0 0 1 .37-.076.93.93 0 0 1 .375.076 1.031 1.031 0 0 1 .522.523c.053.12.08.246.08.378Zm-.305 2.426v7.729h-1.358v-7.729h1.358Z" fill="#ef5214" fill-rule="evenodd" data-name="Path 10"/><path d="M1706.226 81.022a.628.628 0 0 1-.122.13.293.293 0 0 1-.175.046.439.439 0 0 1-.248-.095 2.91 2.91 0 0 0-.839-.42 2.35 2.35 0 0 0-.722-.095c-.376 0-.709.067-.999.202a1.93 1.93 0 0 0-.728.584 2.648 2.648 0 0 0-.443.923c-.1.36-.149.765-.149 1.213 0 .468.054.883.16 1.247.107.364.257.669.45.915.194.247.43.435.706.565.277.13.59.195.935.195.33 0 .603-.04.817-.118.213-.08.39-.167.534-.264.142-.096.259-.184.35-.263a.424.424 0 0 1 .275-.118c.117 0 .204.043.26.13l.38.496a2.943 2.943 0 0 1-1.258.904 4.469 4.469 0 0 1-1.594.286c-.484 0-.933-.09-1.347-.267a3.073 3.073 0 0 1-1.08-.775 3.683 3.683 0 0 1-.72-1.247c-.176-.493-.264-1.056-.264-1.686 0-.575.08-1.106.24-1.595.16-.488.394-.91.702-1.263.308-.353.688-.63 1.14-.827.454-.199.972-.298 1.557-.298.54 0 1.018.088 1.434.263.418.176.787.423 1.107.744l-.359.488Z" fill="#ef5214" fill-rule="evenodd" data-name="Path 11"/><path d="M1713.757 87.378h-.603a.724.724 0 0 1-.32-.061c-.082-.041-.135-.127-.16-.26l-.153-.717a8.861 8.861 0 0 1-.595.493 3.43 3.43 0 0 1-.61.366c-.214.099-.442.174-.684.225a3.91 3.91 0 0 1-.805.076c-.3 0-.58-.042-.842-.127a1.794 1.794 0 0 1-1.145-1.018 2.246 2.246 0 0 1-.171-.915c0-.306.084-.6.251-.884.168-.283.439-.534.813-.754.374-.22.863-.4 1.469-.54.604-.14 1.345-.21 2.22-.21v-.607c0-.604-.129-1.06-.386-1.37-.257-.31-.637-.464-1.14-.464-.331 0-.61.041-.836.125a3.14 3.14 0 0 0-.587.283c-.165.104-.308.197-.428.282a.616.616 0 0 1-.354.126.402.402 0 0 1-.24-.073.555.555 0 0 1-.164-.179l-.245-.435c.427-.412.888-.72 1.381-.923a4.264 4.264 0 0 1 1.64-.305c.433 0 .817.07 1.153.213.335.143.617.342.846.595.23.255.402.563.52.923.116.362.175.758.175 1.191v4.944Zm-3.525-.832a2.56 2.56 0 0 0 1.216-.279 2.86 2.86 0 0 0 .504-.324 4.2 4.2 0 0 0 .47-.435v-1.594c-.626 0-1.157.04-1.595.12-.437.078-.794.182-1.068.31-.275.128-.474.278-.599.453a.979.979 0 0 0-.187.583c0 .204.033.381.1.53a1 1 0 0 0 .663.571c.153.043.318.065.496.065Z" fill="#ef5214" fill-rule="evenodd" data-name="Path 12"/><path d="M1717.327 76.14v11.238h-1.358V76.14h1.358Z" fill="#ef5214" fill-rule="evenodd" data-name="Path 13"/><path d="M1728.48 78.154a.597.597 0 0 1-.144.172.328.328 0 0 1-.198.057c-.087 0-.187-.043-.301-.13a4.832 4.832 0 0 0-.436-.286 3.558 3.558 0 0 0-.632-.287 2.758 2.758 0 0 0-.897-.129c-.33 0-.623.045-.877.133a1.88 1.88 0 0 0-.637.363c-.17.152-.3.332-.386.538-.086.206-.13.428-.13.668 0 .304.075.557.225.759.15.2.35.372.596.514.246.143.526.267.84.37l.96.324c.328.113.649.238.961.378.313.14.593.317.84.53.246.214.445.476.595.787.15.31.225.691.225 1.144 0 .478-.081.927-.244 1.347-.163.42-.4.784-.713 1.094a3.33 3.33 0 0 1-1.153.733c-.455.178-.972.267-1.552.267a4.741 4.741 0 0 1-1.934-.385 4.517 4.517 0 0 1-1.491-1.041l.426-.703a.577.577 0 0 1 .149-.14.347.347 0 0 1 .195-.058c.107 0 .229.057.366.171.137.115.309.241.515.379.206.137.455.263.747.377.293.114.65.171 1.073.171.35 0 .663-.048.938-.144a2.01 2.01 0 0 0 .698-.408 1.77 1.77 0 0 0 .439-.63 2.1 2.1 0 0 0 .152-.816c0-.33-.074-.602-.224-.813a1.878 1.878 0 0 0-.592-.53 4.11 4.11 0 0 0-.835-.362l-.962-.306a9.52 9.52 0 0 1-.961-.363 3.123 3.123 0 0 1-.836-.533 2.447 2.447 0 0 1-.59-.82c-.151-.329-.226-.734-.226-1.217 0-.387.075-.76.225-1.122.15-.361.368-.681.653-.961.284-.28.636-.504 1.056-.672.42-.168.902-.252 1.446-.252.61 0 1.167.097 1.67.29a3.85 3.85 0 0 1 1.32.84l-.358.702Z" fill="#ef5214" fill-rule="evenodd" data-name="Path 14"/><path d="M1733.814 79.527c.464 0 .89.078 1.283.232.39.156.729.38 1.014.672.285.292.507.654.667 1.084.16.43.241.92.241 1.468 0 .214-.023.356-.069.428-.046.07-.132.107-.26.107h-5.142c.01.488.077.912.199 1.273.122.362.29.663.503.905.213.241.468.422.763.541.295.12.626.18.992.18.341 0 .634-.04.881-.12a4.294 4.294 0 0 0 1.083-.51.597.597 0 0 1 .31-.118c.112 0 .199.043.26.13l.38.496a2.59 2.59 0 0 1-.602.53c-.234.15-.484.273-.752.37a4.998 4.998 0 0 1-1.675.29c-.533 0-1.025-.09-1.476-.271a3.247 3.247 0 0 1-1.167-.793 3.638 3.638 0 0 1-.767-1.294c-.183-.514-.274-1.103-.274-1.77 0-.54.082-1.043.247-1.51.166-.469.404-.874.714-1.218.31-.343.69-.612 1.137-.808.448-.196.95-.294 1.51-.294Zm.03 1c-.655 0-1.171.19-1.548.568-.377.38-.61.904-.702 1.575h4.205c0-.315-.044-.604-.13-.865a1.933 1.933 0 0 0-.382-.68 1.696 1.696 0 0 0-.615-.442 2.07 2.07 0 0 0-.827-.157Z" fill="#ef5214" fill-rule="evenodd" data-name="Path 15"/><path d="M1738.75 87.378v-7.729h.778c.148 0 .25.028.306.084.056.056.093.152.114.29l.092 1.205c.264-.539.591-.96.98-1.262a2.169 2.169 0 0 1 1.37-.454c.213 0 .406.024.58.072.172.049.333.116.48.202l-.175 1.016c-.036.126-.115.19-.237.19-.071 0-.18-.024-.328-.073a2.073 2.073 0 0 0-.618-.072c-.473 0-.869.137-1.186.412-.318.274-.585.674-.798 1.198v4.921h-1.358Z" fill="#ef5214" fill-rule="evenodd" data-name="Path 16"/><path d="M1743.924 79.65h1.113c.107 0 .196.027.267.083.07.056.122.122.152.199l1.962 4.974c.07.183.127.366.167.549.041.184.08.364.115.542.04-.178.084-.358.13-.542.045-.183.103-.366.175-.549l1.984-4.974c.03-.082.08-.15.148-.203a.404.404 0 0 1 .256-.08h1.06l-3.15 7.729h-1.229l-3.15-7.729Z" fill="#ef5214" fill-rule="evenodd" data-name="Path 17"/><path d="M1754.529 77.223a.86.86 0 0 1-.081.37 1.08 1.08 0 0 1-.213.305.988.988 0 0 1-.31.21.926.926 0 0 1-.374.076.897.897 0 0 1-.37-.076 1.005 1.005 0 0 1-.514-.515.954.954 0 0 1 0-.748.986.986 0 0 1 .515-.523.897.897 0 0 1 .369-.076c.133 0 .258.025.374.076a1 1 0 0 1 .523.523c.054.12.08.246.08.378Zm-.306 2.426v7.729h-1.358v-7.729h1.358Z" fill="#ef5214" fill-rule="evenodd" data-name="Path 18"/><path d="M1761.89 81.022a.61.61 0 0 1-.122.13.29.29 0 0 1-.174.046.432.432 0 0 1-.248-.095 2.923 2.923 0 0 0-.84-.42 2.352 2.352 0 0 0-.721-.095c-.376 0-.71.067-1 .202a1.93 1.93 0 0 0-.728.584 2.623 2.623 0 0 0-.443.923c-.099.36-.149.765-.149 1.213 0 .468.053.883.161 1.247.107.364.256.669.45.915.193.247.428.435.706.565.277.13.588.195.934.195.33 0 .602-.04.817-.118.213-.08.391-.167.534-.264.142-.096.26-.184.35-.263a.426.426 0 0 1 .276-.118c.116 0 .202.043.259.13l.381.496a2.94 2.94 0 0 1-1.259.904 4.47 4.47 0 0 1-1.594.286c-.484 0-.932-.09-1.347-.267a3.058 3.058 0 0 1-1.079-.775 3.664 3.664 0 0 1-.721-1.247c-.176-.493-.264-1.056-.264-1.686 0-.575.08-1.106.24-1.595.16-.488.394-.91.703-1.263.308-.353.688-.63 1.14-.827.453-.199.972-.298 1.557-.298.538 0 1.016.088 1.434.263.417.176.786.423 1.106.744l-.358.488Z" fill="#ef5214" fill-rule="evenodd" data-name="Path 19"/><path d="M1766.803 79.527c.464 0 .89.078 1.283.232.39.156.729.38 1.014.672.285.292.507.654.668 1.084.16.43.24.92.24 1.468 0 .214-.023.356-.07.428-.044.07-.131.107-.258.107h-5.142c.01.488.075.912.198 1.273.122.362.29.663.503.905.214.241.468.422.763.541.295.12.626.18.993.18.34 0 .634-.04.88-.12a4.24 4.24 0 0 0 1.084-.51.592.592 0 0 1 .309-.118.3.3 0 0 1 .26.13l.38.496c-.167.203-.368.38-.602.53-.234.15-.484.273-.752.37a5.004 5.004 0 0 1-1.674.29c-.534 0-1.026-.09-1.477-.271a3.25 3.25 0 0 1-1.167-.793 3.627 3.627 0 0 1-.766-1.294c-.184-.514-.275-1.103-.275-1.77 0-.54.083-1.043.248-1.51.165-.469.403-.874.713-1.218a3.3 3.3 0 0 1 1.136-.808 3.738 3.738 0 0 1 1.511-.294Zm.031 1c-.656 0-1.173.19-1.548.568-.377.38-.611.904-.703 1.575h4.205c0-.315-.044-.604-.13-.865a1.932 1.932 0 0 0-.382-.68 1.706 1.706 0 0 0-.614-.442 2.072 2.072 0 0 0-.828-.157Z" fill="#ef5214" fill-rule="evenodd" data-name="Path 20"/><path d="M1776.165 80.923a.3.3 0 0 1-.282.168.532.532 0 0 1-.26-.084 5.545 5.545 0 0 0-.354-.186 3.297 3.297 0 0 0-.5-.192 2.378 2.378 0 0 0-.687-.088c-.229 0-.435.03-.617.088-.184.06-.34.14-.47.24a1.07 1.07 0 0 0-.297.355.95.95 0 0 0-.103.44c0 .198.057.363.171.496.115.131.266.246.455.343.188.096.4.181.64.255.239.074.485.153.737.236.251.085.497.177.736.28.239.1.452.228.64.381.188.152.34.34.455.56.113.221.17.488.17.798 0 .356-.062.685-.19.988a2.158 2.158 0 0 1-.564.785 2.71 2.71 0 0 1-.915.523 3.764 3.764 0 0 1-1.252.191 3.9 3.9 0 0 1-1.464-.264 3.698 3.698 0 0 1-1.114-.675l.32-.518a.462.462 0 0 1 .145-.153.41.41 0 0 1 .22-.054c.092 0 .19.036.291.107.102.072.225.15.37.237s.32.166.526.237c.206.07.465.106.774.106.265 0 .497-.034.695-.102a1.47 1.47 0 0 0 .496-.28c.132-.116.23-.251.294-.403.063-.153.095-.315.095-.489a.812.812 0 0 0-.171-.53 1.443 1.443 0 0 0-.454-.358 3.702 3.702 0 0 0-.645-.26c-.242-.073-.488-.151-.74-.233a8.695 8.695 0 0 1-.741-.278 2.61 2.61 0 0 1-.644-.393 1.78 1.78 0 0 1-.454-.584c-.114-.232-.172-.512-.172-.843a2.063 2.063 0 0 1 .718-1.568c.233-.206.521-.37.862-.491.34-.123.729-.184 1.167-.184a3.7 3.7 0 0 1 1.37.24c.404.16.753.381 1.049.66l-.306.496Z" fill="#ef5214" fill-rule="evenodd" data-name="Path 21"/><g data-name="Group 4"><path d="M217.837 65.074V30.406h6.057v34.668h-6.057Zm28.564 0-19.409-15.26c-.541-.445-.89-.85-1.048-1.216-.16-.365-.223-.802-.19-1.311 0-.54.093-1.01.285-1.407.19-.397.604-.85 1.24-1.359l18.358-14.115h9.298l-22.698 16.928 23.415 17.74h-9.25Z" fill-rule="evenodd" fill="url(&quot;#a&quot;)" transform="translate(1563.232 7.522)" data-name="Path 22"/></g><g data-name="Group 5"><path d="M25.827 65.075V30.408h30.995v6.056h-24.94v22.555H56.87v6.056H25.827ZM36.27 50.007v-5.103h19.217v5.103H36.27Z" fill-rule="evenodd" fill="url(&quot;#b&quot;)" transform="translate(1630.009 7.521)" data-name="Path 23"/><path d="m123.481 64.846-6.627-24.368-9.823 22.556c-.35.731-.77 1.296-1.263 1.693-.495.398-1.106.597-1.838.597-1.399 0-2.43-.764-3.098-2.29l-9.775-22.556-6.63 24.368h-5.96l8.917-32.617c.414-1.652 1.415-2.479 3.005-2.479.635 0 1.231.175 1.788.524.554.35.977.859 1.264 1.526l10.68 24.511L114.804 31.8c.571-1.366 1.54-2.05 2.908-2.05 1.462 0 2.43.827 2.908 2.48l8.87 32.616h-6.009Z" fill-rule="evenodd" fill="url(&quot;#c&quot;)" transform="translate(1611.702 7.75)" data-name="Path 24"/><path d="M162.84 65.075V30.408h30.994v6.056h-24.94v22.555h24.987v6.056h-31.042Zm10.442-15.068v-5.103h19.217v5.103h-19.217Z" fill-rule="evenodd" fill="url(&quot;#d&quot;)" transform="translate(1582.359 7.521)" data-name="Path 25"/></g><path d="M0 0h39.979v6.56H0V0z" fill-rule="evenodd" fill="url(&quot;#e&quot;)" transform="translate(1779.812 80.69)" data-name="Rectangle 92"/></g><defs><linearGradient x1="0" y1=".5" x2="1" y2=".5" id="a"><stop stop-color="#f9840e" offset="0"/><stop stop-color="#ec4217" offset="1"/></linearGradient><linearGradient x1="0" y1=".5" x2="1" y2=".5" id="b"><stop stop-color="#042b51" offset="0"/><stop stop-color="#003976" offset="1"/></linearGradient><linearGradient x1="0" y1=".5" x2="1" y2=".5" id="c"><stop stop-color="#042b51" offset="0"/><stop stop-color="#003976" offset="1"/></linearGradient><linearGradient x1="0" y1=".5" x2="1" y2=".5" id="d"><stop stop-color="#042b51" offset="0"/><stop stop-color="#003976" offset="1"/></linearGradient><linearGradient x1="0" y1=".5" x2="1" y2=".5" id="e"><stop stop-color="#f9840e" offset="0"/><stop stop-color="#ec4217" offset="1"/></linearGradient></defs></svg>