<svg xmlns="http://www.w3.org/2000/svg" width="2121.321" height="2121.32" viewBox="427.319 4530.361 2121.321 2121.32"><g data-name="Mask Group 18" transform="translate(540 -1257)" clip-path="url(&quot;#a&quot;)"><g data-name="Repeat Grid 3"><path d="M665.137 5787.36 2008.64 7130.865l-3.536 3.535L661.601 5790.896l3.536-3.535zM654.53 5797.967 1998.033 7141.47l-3.536 3.536L650.995 5801.503l3.535-3.536zM643.924 5808.574l1343.502 1343.503-3.535 3.535L640.388 5812.11l3.536-3.536zM633.317 5819.18 1976.82 7162.685l-3.536 3.535L629.781 5822.716l3.536-3.535zM622.71 5829.787 1966.213 7173.29l-3.535 3.536L619.175 5833.323l3.535-3.536zM612.104 5840.394l1343.503 1343.503-3.536 3.535L608.568 5843.93l3.536-3.535zM601.497 5851 1945 7194.503l-3.536 3.536L597.962 5854.536l3.535-3.536zM590.89 5861.607 1934.394 7205.11l-3.535 3.535L587.355 5865.143l3.536-3.536zM580.284 5872.214l1343.503 1343.503-3.536 3.535L576.748 5875.749l3.536-3.535zM569.677 5882.82 1913.18 7226.323l-3.535 3.536L566.142 5886.356l3.535-3.536zM559.07 5893.427 1902.575 7236.93l-3.536 3.535L555.535 5896.962l3.536-3.535zM548.464 5904.033l1343.503 1343.503-3.536 3.536L544.93 5907.569l3.535-3.536zM537.858 5914.64 1881.36 7258.143l-3.535 3.535L534.322 5918.176l3.536-3.536zM527.25 5925.247 1870.755 7268.75l-3.536 3.535L523.715 5928.782l3.536-3.535zM516.644 5935.853l1343.503 1343.503-3.535 3.536L513.109 5939.389l3.535-3.536zM506.038 5946.46 1849.54 7289.963l-3.536 3.535L502.502 5949.995l3.536-3.535zM495.431 5957.066 1838.934 7300.57l-3.536 3.536L491.896 5960.602l3.535-3.536zM484.824 5967.673l1343.503 1343.503-3.535 3.535L481.289 5971.21l3.535-3.536zM474.218 5978.28 1817.72 7321.783l-3.536 3.535L470.682 5981.815l3.536-3.535zM463.611 5988.886 1807.114 7332.39l-3.535 3.536L460.076 5992.422l3.535-3.536zM453.005 5999.493l1343.503 1343.503-3.536 3.535L449.469 6003.028l3.536-3.535zM442.398 6010.1l1343.503 1343.502-3.536 3.536L438.863 6013.635l3.535-3.536zM431.791 6020.706 1775.294 7364.21l-3.535 3.535L428.256 6024.242l3.535-3.536zM421.185 6031.313l1343.503 1343.503-3.536 3.535L417.65 6034.848l3.536-3.535zM410.578 6041.92l1343.503 1343.502-3.535 3.536L407.043 6045.455l3.535-3.536zM399.972 6052.526l1343.503 1343.503-3.536 3.535L396.436 6056.061l3.536-3.535zM389.365 6063.132l1343.503 1343.503-3.536 3.536L385.83 6066.668l3.535-3.536zM378.758 6073.74l1343.503 1343.502-3.535 3.535L375.223 6077.275l3.535-3.536zM368.152 6084.346l1343.503 1343.503-3.536 3.535L364.616 6087.881l3.536-3.535zM357.545 6094.952l1343.503 1343.503-3.535 3.536L354.01 6098.488l3.535-3.536zM346.939 6105.559l1343.503 1343.503-3.536 3.535L343.403 6109.094l3.536-3.535zM336.332 6116.165l1343.503 1343.503-3.536 3.536L332.797 6119.7l3.535-3.536zM325.725 6126.772l1343.503 1343.503-3.535 3.535L322.19 6130.308l3.535-3.536zM315.119 6137.379l1343.503 1343.503-3.536 3.535L311.583 6140.914l3.536-3.535zM304.512 6147.985l1343.503 1343.503-3.535 3.536L300.977 6151.52l3.535-3.536zM293.906 6158.592l1343.503 1343.503-3.536 3.535L290.37 6162.127l3.536-3.535zM283.3 6169.198l1343.502 1343.503-3.536 3.536L279.764 6172.734l3.535-3.536zM272.692 6179.805l1343.503 1343.503-3.535 3.535L269.157 6183.341l3.535-3.536zM262.086 6190.412l1343.503 1343.503-3.536 3.535L258.55 6193.947l3.536-3.535zM251.48 6201.018l1343.502 1343.503-3.535 3.536L247.944 6204.554l3.535-3.536zM240.873 6211.625l1343.503 1343.503-3.536 3.535L237.337 6215.16l3.536-3.535zM230.266 6222.232 1573.77 7565.734l-3.536 3.536L226.731 6225.767l3.535-3.535zM219.66 6232.838l1343.502 1343.503-3.535 3.535L216.124 6236.374l3.535-3.536zM209.053 6243.445l1343.503 1343.503-3.536 3.535L205.517 6246.98l3.536-3.535zM198.446 6254.051 1541.95 7597.554l-3.535 3.536L194.91 6257.587l3.535-3.536zM187.84 6264.658 1531.343 7608.16l-3.536 3.535L184.304 6268.193l3.536-3.535zM177.233 6275.265l1343.503 1343.502-3.536 3.536L173.698 6278.8l3.535-3.535zM166.626 6285.871 1510.13 7629.374l-3.535 3.536L163.09 6289.407l3.535-3.536zM156.02 6296.478 1499.523 7639.98l-3.536 3.535L152.484 6300.013l3.536-3.535zM145.413 6307.084l1343.503 1343.503-3.535 3.536L141.878 6310.62l3.535-3.536zM134.807 6317.69 1478.31 7661.195l-3.536 3.535L131.271 6321.226l3.536-3.535zM124.2 6328.298 1467.703 7671.8l-3.536 3.536L120.665 6331.833l3.535-3.535zM113.593 6338.904l1343.503 1343.503-3.535 3.536L110.058 6342.44l3.535-3.536zM102.987 6349.51 1446.49 7693.015l-3.536 3.535L99.451 6353.046l3.536-3.535zM92.38 6360.117 1435.883 7703.62l-3.535 3.536L88.845 6363.653l3.535-3.536zM81.774 6370.724l1343.502 1343.503-3.535 3.535L78.238 6374.26l3.536-3.535zM71.167 6381.33 1414.67 7724.834l-3.536 3.536L67.631 6384.866l3.536-3.535zM60.56 6391.937 1404.063 7735.44l-3.535 3.536L57.025 6395.473l3.535-3.536zM49.954 6402.544l1343.503 1343.503-3.536 3.535L46.418 6406.08l3.536-3.535zM39.347 6413.15 1382.85 7756.653l-3.535 3.536L35.812 6416.686l3.535-3.536zM28.74 6423.757 1372.244 7767.26l-3.535 3.535L25.205 6427.292l3.536-3.535zM18.134 6434.364l1343.503 1343.502-3.536 3.536L14.598 6437.899l3.536-3.535zM7.527 6444.97 1351.03 7788.473l-3.535 3.536L3.992 6448.506l3.535-3.536zM-3.08 6455.577 1340.425 7799.08l-3.536 3.535L-6.615 6459.112l3.536-3.535zM-13.686 6466.183l1343.503 1343.503-3.535 3.536L-17.221 6469.719l3.535-3.536zM-24.292 6476.79 1319.21 7820.293l-3.535 3.535L-27.828 6480.325l3.536-3.535zM-34.899 6487.397l1343.503 1343.502-3.536 3.536L-38.435 6490.932l3.536-3.535zM-45.506 6498.003l1343.503 1343.503-3.535 3.536L-49.041 6501.539l3.535-3.536zM-56.112 6508.61 1287.39 7852.113l-3.536 3.535L-59.648 6512.145l3.536-3.535zM-66.719 6519.216 1276.784 7862.72l-3.535 3.536L-70.254 6522.752l3.535-3.536zM-77.325 6529.823l1343.502 1343.503-3.535 3.535L-80.861 6533.358l3.536-3.535zM-87.932 6540.43l1343.503 1343.502-3.536 3.536L-91.468 6543.965l3.536-3.535zM-98.539 6551.036 1244.964 7894.54l-3.535 3.536-1343.503-1343.503 3.535-3.536zM-109.145 6561.643l1343.503 1343.503-3.536 3.535L-112.68 6565.178l3.536-3.535z" fill="#f8f8f8" fill-rule="evenodd" data-name="Rectangle 172"/></g></g><defs><clipPath id="a"><path d="M0 0h600v678H0V0z" data-name="Rectangle 173" transform="translate(645 6536)"/></clipPath></defs></svg>