<svg xmlns="http://www.w3.org/2000/svg" width="16.928" height="16.928" viewBox="321.167 55.167 16.928 16.928"><g data-name="search-line"><path d="m334.526 67.348 3.569 3.568-1.18 1.179-3.568-3.57a7.467 7.467 0 0 1-4.68 1.642c-4.14 0-7.5-3.36-7.5-7.5 0-4.14 3.36-7.5 7.5-7.5 4.14 0 7.5 3.36 7.5 7.5a7.467 7.467 0 0 1-1.641 4.68Zm-1.672-.619a5.814 5.814 0 0 0 1.646-4.062 5.832 5.832 0 0 0-5.833-5.834 5.831 5.831 0 0 0-5.834 5.834 5.832 5.832 0 0 0 5.834 5.833 5.814 5.814 0 0 0 4.062-1.646l.125-.125Z" fill="#fff" fill-rule="evenodd" data-name="Path 45"/></g></svg>